# xmcd
#
# Track frame offsets: 
#        150
#        17575
#        35093
#        50513
#        69873
#        83800
#
# Disc length: 1360 seconds
#
# Revision: 0
# Processed by: cddbd v1.5.2PL0 Copyright (c) Steve Scherf et al.
# Submitted via: ExactAudioCopyFreeDBPlugin 1.0
#
DISCID=43054e06
DTITLE=Jon Bowlin - The Old Things Best
DYEAR=2017
DGENRE=Country
TTITLE0=Deeper Than The Holler
TTITLE1=She Ain't Meant For Me
TTITLE2=Sunshine State Of Mind
TTITLE3=She Won't Be A Fool Again
TTITLE4=The Old Things Best
TTITLE5=You Can't Make Me Stay
EXTD=
EXTT0=
EXTT1=
EXTT2=
EXTT3=
EXTT4=
EXTT5=
PLAYORDER=
